%
M48
M72
T01C0.0118
T02C0.0354
%
T01
X820Y1505
X820Y1880
X820Y2255
X820Y2630
X820Y3005
X2320Y3255
X2570Y3380
X3820Y5005
X3820Y5380
X3820Y5755
X4945Y5755
X4945Y6130
X5320Y6130
X5320Y5755
X5820Y6130
X6195Y6130
X5320Y2755
X5320Y2380
X4945Y2380
X4945Y2755
X5820Y2380
X6320Y2380
X6445Y755
X5445Y755
X4195Y755
X3195Y755
X820Y4630
X820Y5005
X2570Y5380
X2570Y5755
T02
X570Y505
X3695Y505
X5945Y505
X8570Y505
X8570Y7505
X5820Y7505
X3445Y7505
X570Y7505
X570Y3880
M30
