G75*
%MOIN*%
%OFA0B0*%
%FSLAX25Y25*%
%IPPOS*%
%LPD*%
%AMOC8*
5,1,8,0,0,1.08239X$1,22.5*
%
%ADD10R,0.03150X0.03150*%
%ADD11R,0.08268X0.01378*%
%ADD12R,0.05000X0.05000*%
D10*
X0012747Y0016300D03*
X0018653Y0016300D03*
X0018653Y0022550D03*
X0012747Y0022550D03*
X0012747Y0028800D03*
X0018653Y0028800D03*
X0020700Y0035847D03*
X0020700Y0041753D03*
X0018653Y0048800D03*
X0012747Y0048800D03*
X0013200Y0041753D03*
X0013200Y0035847D03*
X0033200Y0018003D03*
X0033200Y0012097D03*
X0040700Y0012097D03*
X0040700Y0018003D03*
X0055700Y0018003D03*
X0055700Y0012097D03*
X0063200Y0012097D03*
X0063200Y0018003D03*
D11*
X0059283Y0025916D03*
X0059283Y0028475D03*
X0059283Y0031034D03*
X0059283Y0033593D03*
X0059283Y0036152D03*
X0059283Y0038711D03*
X0059283Y0041270D03*
X0059283Y0043830D03*
X0059283Y0046389D03*
X0059283Y0048948D03*
X0059283Y0051507D03*
X0059283Y0054066D03*
X0059283Y0056625D03*
X0059283Y0059184D03*
X0032117Y0059184D03*
X0032117Y0056625D03*
X0032117Y0054066D03*
X0032117Y0051507D03*
X0032117Y0048948D03*
X0032117Y0046389D03*
X0032117Y0043830D03*
X0032117Y0041270D03*
X0032117Y0038711D03*
X0032117Y0036152D03*
X0032117Y0033593D03*
X0032117Y0031034D03*
X0032117Y0028475D03*
X0032117Y0025916D03*
D12*
X0048200Y0010050D03*
X0071950Y0010050D03*
X0073200Y0020050D03*
X0080700Y0025050D03*
X0073200Y0030050D03*
X0080700Y0035050D03*
X0073200Y0040050D03*
X0080700Y0045050D03*
X0073200Y0050050D03*
X0080700Y0055050D03*
X0073200Y0060050D03*
X0080700Y0065050D03*
X0073200Y0070050D03*
X0045700Y0068800D03*
X0019450Y0062550D03*
X0011950Y0057550D03*
X0011950Y0068800D03*
M02*
