%
M48
M72
T01C0.0217
T02C0.0236
T03C0.0394
T04C0.1300
%
T01
X8865Y3365
X9365Y3740
X9240Y4240
X8865Y4240
X12365Y4615
X12865Y4615
X13365Y4615
X13865Y4615
X16240Y4240
X16615Y4240
X16740Y3740
X16240Y3365
X19740Y4615
X20240Y4615
X20740Y4615
X21240Y4615
X24240Y4240
X24615Y4240
X24865Y3740
X24240Y3365
X27740Y4615
X28240Y4615
X28740Y4615
X29240Y4615
X32240Y4240
X32615Y4240
X32740Y3740
X32240Y3365
X34490Y5990
X34990Y5990
X35615Y5990
X36115Y5990
X11490Y5615
T02
X1615Y615
X928Y928
X2303Y928
X2615Y1615
X615Y1615
X928Y2303
X2303Y2303
X1615Y2615
X37115Y1615
X39115Y1615
X38803Y928
X38115Y615
X37428Y928
X37428Y2303
X38803Y2303
X38115Y2615
T03
X35915Y1615
X34915Y1615
X33915Y1615
X32915Y1615
X31915Y1615
X30915Y1615
X29915Y1615
X28915Y1615
X27915Y1615
X26915Y1615
X25915Y1615
X24915Y1615
X23915Y1615
X22915Y1615
X21915Y1615
X20915Y1615
X19915Y1615
X18915Y1615
X17915Y1615
X16915Y1615
X15915Y1615
X14915Y1615
X13915Y1615
X12915Y1615
X11915Y1615
X10915Y1615
X9915Y1615
X8915Y1615
X7915Y1615
X6915Y1615
X5915Y1615
X4915Y1615
X38115Y3740
X38115Y4740
X38115Y5740
X38115Y6740
X38115Y7740
T04
X38115Y1615
X1615Y1615
M30
