G75*
%MOIN*%
%OFA0B0*%
%FSLAX25Y25*%
%IPPOS*%
%LPD*%
%AMOC8*
5,1,8,0,0,1.08239X$1,22.5*
%
%ADD10OC8,0.07500*%
%ADD11OC8,0.25900*%
%ADD12OC8,0.04043*%
%ADD13C,0.03748*%
D10*
X0049150Y0016150D03*
X0059150Y0016150D03*
X0069150Y0016150D03*
X0079150Y0016150D03*
X0089150Y0016150D03*
X0099150Y0016150D03*
X0109150Y0016150D03*
X0119150Y0016150D03*
X0129150Y0016150D03*
X0139150Y0016150D03*
X0149150Y0016150D03*
X0159150Y0016150D03*
X0169150Y0016150D03*
X0179150Y0016150D03*
X0189150Y0016150D03*
X0199150Y0016150D03*
X0209150Y0016150D03*
X0219150Y0016150D03*
X0229150Y0016150D03*
X0239150Y0016150D03*
X0249150Y0016150D03*
X0259150Y0016150D03*
X0269150Y0016150D03*
X0279150Y0016150D03*
X0289150Y0016150D03*
X0299150Y0016150D03*
X0309150Y0016150D03*
X0319150Y0016150D03*
X0329150Y0016150D03*
X0339150Y0016150D03*
X0349150Y0016150D03*
X0359150Y0016150D03*
X0381150Y0037400D03*
X0381150Y0047400D03*
X0381150Y0057400D03*
X0381150Y0067400D03*
X0381150Y0077400D03*
D11*
X0381150Y0016150D03*
X0016150Y0016150D03*
D12*
X0016150Y0006150D03*
X0009275Y0009275D03*
X0023025Y0009275D03*
X0026150Y0016150D03*
X0006150Y0016150D03*
X0009275Y0023025D03*
X0023025Y0023025D03*
X0016150Y0026150D03*
X0371150Y0016150D03*
X0391150Y0016150D03*
X0388025Y0009275D03*
X0381150Y0006150D03*
X0374275Y0009275D03*
X0374275Y0023025D03*
X0388025Y0023025D03*
X0381150Y0026150D03*
D13*
X0327400Y0037400D03*
X0322400Y0033650D03*
X0322400Y0042400D03*
X0326150Y0042400D03*
X0292400Y0046150D03*
X0287400Y0046150D03*
X0282400Y0046150D03*
X0277400Y0046150D03*
X0246150Y0042400D03*
X0242400Y0042400D03*
X0248650Y0037400D03*
X0242400Y0033650D03*
X0212400Y0046150D03*
X0207400Y0046150D03*
X0202400Y0046150D03*
X0197400Y0046150D03*
X0166150Y0042400D03*
X0162400Y0042400D03*
X0167400Y0037400D03*
X0162400Y0033650D03*
X0138650Y0046150D03*
X0133650Y0046150D03*
X0128650Y0046150D03*
X0123650Y0046150D03*
X0092400Y0042400D03*
X0088650Y0042400D03*
X0093650Y0037400D03*
X0088650Y0033650D03*
X0114900Y0056150D03*
X0344900Y0059900D03*
X0349900Y0059900D03*
X0356150Y0059900D03*
X0361150Y0059900D03*
M02*
