G75*
%MOIN*%
%OFA0B0*%
%FSLAX25Y25*%
%IPPOS*%
%LPD*%
%AMOC8*
5,1,8,0,0,1.08239X$1,22.5*
%
%ADD10R,0.05118X0.03543*%
%ADD11R,0.02362X0.06102*%
%ADD12R,0.06299X0.03543*%
D10*
X0126650Y0033660D03*
X0136150Y0033660D03*
X0136150Y0041140D03*
X0126650Y0041140D03*
X0200400Y0041140D03*
X0209900Y0041140D03*
X0209900Y0033660D03*
X0200400Y0033660D03*
X0280400Y0033660D03*
X0289900Y0033660D03*
X0289900Y0041140D03*
X0280400Y0041140D03*
X0360650Y0041140D03*
X0369900Y0041140D03*
X0369900Y0033660D03*
X0360650Y0033660D03*
D11*
X0089150Y0026770D03*
X0094150Y0026770D03*
X0099150Y0026770D03*
X0104150Y0026770D03*
X0109150Y0026770D03*
X0114150Y0026770D03*
X0119150Y0026770D03*
X0162900Y0026770D03*
X0167900Y0026770D03*
X0172900Y0026770D03*
X0177900Y0026770D03*
X0182900Y0026770D03*
X0187900Y0026770D03*
X0192900Y0026770D03*
X0242900Y0026770D03*
X0247900Y0026770D03*
X0252900Y0026770D03*
X0257900Y0026770D03*
X0262900Y0026770D03*
X0267900Y0026770D03*
X0272900Y0026770D03*
X0322900Y0026770D03*
X0327900Y0026770D03*
X0332900Y0026770D03*
X0337900Y0026770D03*
X0342900Y0026770D03*
X0347900Y0026770D03*
X0352900Y0026770D03*
X0352900Y0048030D03*
X0347900Y0048030D03*
X0342900Y0048030D03*
X0337900Y0048030D03*
X0332900Y0048030D03*
X0327900Y0048030D03*
X0322900Y0048030D03*
X0272900Y0048030D03*
X0267900Y0048030D03*
X0262900Y0048030D03*
X0257900Y0048030D03*
X0252900Y0048030D03*
X0247900Y0048030D03*
X0242900Y0048030D03*
X0192900Y0048030D03*
X0187900Y0048030D03*
X0182900Y0048030D03*
X0177900Y0048030D03*
X0172900Y0048030D03*
X0167900Y0048030D03*
X0162900Y0048030D03*
X0119150Y0048030D03*
X0114150Y0048030D03*
X0109150Y0048030D03*
X0104150Y0048030D03*
X0099150Y0048030D03*
X0094150Y0048030D03*
X0089150Y0048030D03*
D12*
X0347400Y0065048D03*
X0358650Y0065048D03*
X0358650Y0077252D03*
X0347400Y0077252D03*
M02*
