G75*
%MOIN*%
%OFA0B0*%
%FSLAX25Y25*%
%IPPOS*%
%LPD*%
%AMOC8*
5,1,8,0,0,1.08239X$1,22.5*
%
%ADD10R,0.05618X0.04043*%
%ADD11R,0.02862X0.06602*%
%ADD12OC8,0.07500*%
%ADD13OC8,0.25900*%
%ADD14OC8,0.04043*%
%ADD15R,0.06799X0.04043*%
%ADD16C,0.03748*%
D10*
X0126650Y0033660D03*
X0136150Y0033660D03*
X0136150Y0041140D03*
X0126650Y0041140D03*
X0200400Y0041140D03*
X0209900Y0041140D03*
X0209900Y0033660D03*
X0200400Y0033660D03*
X0280400Y0033660D03*
X0289900Y0033660D03*
X0289900Y0041140D03*
X0280400Y0041140D03*
X0360650Y0041140D03*
X0369900Y0041140D03*
X0369900Y0033660D03*
X0360650Y0033660D03*
D11*
X0352900Y0026770D03*
X0347900Y0026770D03*
X0342900Y0026770D03*
X0337900Y0026770D03*
X0332900Y0026770D03*
X0327900Y0026770D03*
X0322900Y0026770D03*
X0272900Y0026770D03*
X0267900Y0026770D03*
X0262900Y0026770D03*
X0257900Y0026770D03*
X0252900Y0026770D03*
X0247900Y0026770D03*
X0242900Y0026770D03*
X0192900Y0026770D03*
X0187900Y0026770D03*
X0182900Y0026770D03*
X0177900Y0026770D03*
X0172900Y0026770D03*
X0167900Y0026770D03*
X0162900Y0026770D03*
X0119150Y0026770D03*
X0114150Y0026770D03*
X0109150Y0026770D03*
X0104150Y0026770D03*
X0099150Y0026770D03*
X0094150Y0026770D03*
X0089150Y0026770D03*
X0089150Y0048030D03*
X0094150Y0048030D03*
X0099150Y0048030D03*
X0104150Y0048030D03*
X0109150Y0048030D03*
X0114150Y0048030D03*
X0119150Y0048030D03*
X0162900Y0048030D03*
X0167900Y0048030D03*
X0172900Y0048030D03*
X0177900Y0048030D03*
X0182900Y0048030D03*
X0187900Y0048030D03*
X0192900Y0048030D03*
X0242900Y0048030D03*
X0247900Y0048030D03*
X0252900Y0048030D03*
X0257900Y0048030D03*
X0262900Y0048030D03*
X0267900Y0048030D03*
X0272900Y0048030D03*
X0322900Y0048030D03*
X0327900Y0048030D03*
X0332900Y0048030D03*
X0337900Y0048030D03*
X0342900Y0048030D03*
X0347900Y0048030D03*
X0352900Y0048030D03*
D12*
X0381150Y0047400D03*
X0381150Y0057400D03*
X0381150Y0067400D03*
X0381150Y0077400D03*
X0381150Y0037400D03*
X0359150Y0016150D03*
X0349150Y0016150D03*
X0339150Y0016150D03*
X0329150Y0016150D03*
X0319150Y0016150D03*
X0309150Y0016150D03*
X0299150Y0016150D03*
X0289150Y0016150D03*
X0279150Y0016150D03*
X0269150Y0016150D03*
X0259150Y0016150D03*
X0249150Y0016150D03*
X0239150Y0016150D03*
X0229150Y0016150D03*
X0219150Y0016150D03*
X0209150Y0016150D03*
X0199150Y0016150D03*
X0189150Y0016150D03*
X0179150Y0016150D03*
X0169150Y0016150D03*
X0159150Y0016150D03*
X0149150Y0016150D03*
X0139150Y0016150D03*
X0129150Y0016150D03*
X0119150Y0016150D03*
X0109150Y0016150D03*
X0099150Y0016150D03*
X0089150Y0016150D03*
X0079150Y0016150D03*
X0069150Y0016150D03*
X0059150Y0016150D03*
X0049150Y0016150D03*
D13*
X0016150Y0016150D03*
X0381150Y0016150D03*
D14*
X0016150Y0006150D03*
X0009275Y0009275D03*
X0023025Y0009275D03*
X0026150Y0016150D03*
X0006150Y0016150D03*
X0009275Y0023025D03*
X0023025Y0023025D03*
X0016150Y0026150D03*
X0371150Y0016150D03*
X0391150Y0016150D03*
X0388025Y0009275D03*
X0381150Y0006150D03*
X0374275Y0009275D03*
X0374275Y0023025D03*
X0388025Y0023025D03*
X0381150Y0026150D03*
D15*
X0358650Y0065048D03*
X0347400Y0065048D03*
X0347400Y0077252D03*
X0358650Y0077252D03*
D16*
X0356150Y0059900D03*
X0361150Y0059900D03*
X0349900Y0059900D03*
X0344900Y0059900D03*
X0292400Y0046150D03*
X0287400Y0046150D03*
X0282400Y0046150D03*
X0277400Y0046150D03*
X0246150Y0042400D03*
X0242400Y0042400D03*
X0248650Y0037400D03*
X0242400Y0033650D03*
X0212400Y0046150D03*
X0207400Y0046150D03*
X0202400Y0046150D03*
X0197400Y0046150D03*
X0166150Y0042400D03*
X0162400Y0042400D03*
X0167400Y0037400D03*
X0162400Y0033650D03*
X0138650Y0046150D03*
X0133650Y0046150D03*
X0128650Y0046150D03*
X0123650Y0046150D03*
X0092400Y0042400D03*
X0088650Y0042400D03*
X0093650Y0037400D03*
X0088650Y0033650D03*
X0114900Y0056150D03*
X0322400Y0042400D03*
X0326150Y0042400D03*
X0327400Y0037400D03*
X0322400Y0033650D03*
M02*
