%
M48
M72
T01C0.0217
T02C0.0236
T03C0.0394
T04C0.1300
%
T01
X5070Y6575
X6570Y7200
X6820Y6825
X6570Y7700
X7195Y9865
X7320Y10450
X7445Y10950
X7820Y10950
X8195Y10950
X6820Y11950
X6570Y10450
X8570Y7740
X10185Y9490
X10320Y8115
X11070Y8865
X11195Y11115
X11195Y11575
X11695Y12450
X12070Y12950
X12570Y13325
X12945Y13700
X11695Y16075
X11850Y16545
X10445Y17575
X8570Y18575
X7070Y18700
X7070Y18325
X6570Y15075
X6570Y14575
X4945Y14575
T02
X2070Y1615
X2383Y928
X3070Y615
X3758Y928
X4070Y1615
X3758Y2303
X3070Y2615
X2383Y2303
X3070Y21115
X2383Y21428
X2070Y22115
X2383Y22803
X3070Y23115
X3758Y22803
X4070Y22115
X3758Y21428
T03
X2570Y19825
X2570Y18825
X2570Y17825
X2570Y16825
X2570Y15825
X2570Y14825
X2570Y13825
X2570Y12825
X2570Y11825
X2570Y10825
X2570Y9825
X2570Y8825
X2570Y7825
X2570Y6825
X2570Y5825
X2570Y4825
X13820Y12825
X13820Y13825
X13820Y14825
X13820Y15825
X13820Y16825
X13820Y17825
X13820Y18825
X13820Y19825
T04
X3070Y22115
X3070Y1615
M30
