G75*
%MOIN*%
%OFA0B0*%
%FSLAX25Y25*%
%IPPOS*%
%LPD*%
%AMOC8*
5,1,8,0,0,1.08239X$1,22.5*
%
%ADD10C,0.00700*%
D10*
X0034614Y0046581D02*
X0034666Y0046691D01*
X0034714Y0046803D01*
X0034759Y0046917D01*
X0034801Y0047031D01*
X0034839Y0047147D01*
X0034873Y0047265D01*
X0034904Y0047383D01*
X0034932Y0047502D01*
X0034956Y0047621D01*
X0034976Y0047742D01*
X0034992Y0047863D01*
X0035005Y0047984D01*
X0035015Y0048106D01*
X0035020Y0048228D01*
X0035022Y0048350D01*
X0032300Y0048350D02*
X0032302Y0048472D01*
X0032307Y0048594D01*
X0032317Y0048716D01*
X0032330Y0048837D01*
X0032346Y0048958D01*
X0032366Y0049079D01*
X0032390Y0049198D01*
X0032418Y0049317D01*
X0032449Y0049435D01*
X0032483Y0049553D01*
X0032521Y0049669D01*
X0032563Y0049783D01*
X0032608Y0049897D01*
X0032657Y0050009D01*
X0032708Y0050119D01*
X0032572Y0049711D02*
X0034750Y0046989D01*
X0033661Y0045900D02*
X0033599Y0045902D01*
X0033536Y0045908D01*
X0033475Y0045917D01*
X0033414Y0045931D01*
X0033354Y0045948D01*
X0033295Y0045969D01*
X0033237Y0045993D01*
X0033182Y0046021D01*
X0033128Y0046053D01*
X0033076Y0046088D01*
X0033026Y0046125D01*
X0032979Y0046166D01*
X0032934Y0046210D01*
X0032892Y0046256D01*
X0032854Y0046305D01*
X0032818Y0046356D01*
X0032785Y0046410D01*
X0032756Y0046465D01*
X0032731Y0046522D01*
X0032708Y0046580D01*
X0033661Y0045900D02*
X0033723Y0045902D01*
X0033786Y0045908D01*
X0033847Y0045917D01*
X0033908Y0045931D01*
X0033968Y0045948D01*
X0034027Y0045969D01*
X0034085Y0045993D01*
X0034140Y0046021D01*
X0034194Y0046053D01*
X0034246Y0046088D01*
X0034296Y0046125D01*
X0034343Y0046166D01*
X0034388Y0046210D01*
X0034430Y0046256D01*
X0034468Y0046305D01*
X0034504Y0046356D01*
X0034537Y0046410D01*
X0034566Y0046465D01*
X0034591Y0046522D01*
X0034614Y0046580D01*
X0032708Y0046581D02*
X0032657Y0046691D01*
X0032608Y0046803D01*
X0032563Y0046917D01*
X0032521Y0047031D01*
X0032483Y0047147D01*
X0032449Y0047265D01*
X0032418Y0047383D01*
X0032390Y0047502D01*
X0032366Y0047621D01*
X0032346Y0047742D01*
X0032330Y0047863D01*
X0032317Y0047984D01*
X0032307Y0048106D01*
X0032302Y0048228D01*
X0032300Y0048350D01*
X0035022Y0048350D02*
X0035020Y0048472D01*
X0035015Y0048594D01*
X0035005Y0048716D01*
X0034992Y0048837D01*
X0034976Y0048958D01*
X0034956Y0049079D01*
X0034932Y0049198D01*
X0034904Y0049317D01*
X0034873Y0049435D01*
X0034839Y0049553D01*
X0034801Y0049669D01*
X0034759Y0049783D01*
X0034714Y0049897D01*
X0034666Y0050009D01*
X0034614Y0050119D01*
X0033661Y0050800D02*
X0033599Y0050798D01*
X0033536Y0050792D01*
X0033475Y0050783D01*
X0033414Y0050769D01*
X0033354Y0050752D01*
X0033295Y0050731D01*
X0033237Y0050707D01*
X0033182Y0050679D01*
X0033128Y0050647D01*
X0033076Y0050612D01*
X0033026Y0050575D01*
X0032979Y0050534D01*
X0032934Y0050490D01*
X0032892Y0050444D01*
X0032854Y0050395D01*
X0032818Y0050343D01*
X0032785Y0050290D01*
X0032756Y0050235D01*
X0032731Y0050178D01*
X0032708Y0050120D01*
X0033661Y0050800D02*
X0033723Y0050798D01*
X0033786Y0050792D01*
X0033847Y0050783D01*
X0033908Y0050769D01*
X0033968Y0050752D01*
X0034027Y0050731D01*
X0034085Y0050707D01*
X0034140Y0050679D01*
X0034194Y0050647D01*
X0034246Y0050612D01*
X0034296Y0050575D01*
X0034343Y0050534D01*
X0034388Y0050490D01*
X0034430Y0050444D01*
X0034468Y0050395D01*
X0034504Y0050344D01*
X0034537Y0050290D01*
X0034566Y0050235D01*
X0034591Y0050178D01*
X0034614Y0050120D01*
X0038387Y0048078D02*
X0037298Y0045900D01*
X0038660Y0048078D02*
X0040021Y0048078D01*
X0038660Y0048078D02*
X0038588Y0048080D01*
X0038515Y0048086D01*
X0038444Y0048095D01*
X0038372Y0048109D01*
X0038302Y0048126D01*
X0038233Y0048147D01*
X0038164Y0048171D01*
X0038098Y0048200D01*
X0038032Y0048231D01*
X0037969Y0048266D01*
X0037908Y0048305D01*
X0037848Y0048347D01*
X0037791Y0048391D01*
X0037737Y0048439D01*
X0037685Y0048490D01*
X0037636Y0048543D01*
X0037590Y0048599D01*
X0037546Y0048657D01*
X0037506Y0048717D01*
X0037469Y0048780D01*
X0037436Y0048844D01*
X0037406Y0048910D01*
X0037380Y0048977D01*
X0037357Y0049046D01*
X0037338Y0049116D01*
X0037323Y0049187D01*
X0037311Y0049258D01*
X0037303Y0049330D01*
X0037299Y0049403D01*
X0037299Y0049475D01*
X0037303Y0049548D01*
X0037311Y0049620D01*
X0037323Y0049691D01*
X0037338Y0049762D01*
X0037357Y0049832D01*
X0037380Y0049901D01*
X0037406Y0049968D01*
X0037436Y0050034D01*
X0037469Y0050098D01*
X0037506Y0050161D01*
X0037546Y0050221D01*
X0037590Y0050279D01*
X0037636Y0050335D01*
X0037685Y0050388D01*
X0037737Y0050439D01*
X0037791Y0050487D01*
X0037848Y0050531D01*
X0037908Y0050573D01*
X0037969Y0050612D01*
X0038032Y0050647D01*
X0038098Y0050678D01*
X0038164Y0050707D01*
X0038233Y0050731D01*
X0038302Y0050752D01*
X0038372Y0050769D01*
X0038444Y0050783D01*
X0038515Y0050792D01*
X0038588Y0050798D01*
X0038660Y0050800D01*
X0040021Y0050800D01*
X0040021Y0045900D01*
X0040021Y0115900D02*
X0040021Y0120800D01*
X0038660Y0120800D01*
X0038588Y0120798D01*
X0038515Y0120792D01*
X0038444Y0120783D01*
X0038372Y0120769D01*
X0038302Y0120752D01*
X0038233Y0120731D01*
X0038164Y0120707D01*
X0038098Y0120678D01*
X0038032Y0120647D01*
X0037969Y0120612D01*
X0037908Y0120573D01*
X0037848Y0120531D01*
X0037791Y0120487D01*
X0037737Y0120439D01*
X0037685Y0120388D01*
X0037636Y0120335D01*
X0037590Y0120279D01*
X0037546Y0120221D01*
X0037506Y0120161D01*
X0037469Y0120098D01*
X0037436Y0120034D01*
X0037406Y0119968D01*
X0037380Y0119901D01*
X0037357Y0119832D01*
X0037338Y0119762D01*
X0037323Y0119691D01*
X0037311Y0119620D01*
X0037303Y0119548D01*
X0037299Y0119475D01*
X0037299Y0119403D01*
X0037303Y0119330D01*
X0037311Y0119258D01*
X0037323Y0119187D01*
X0037338Y0119116D01*
X0037357Y0119046D01*
X0037380Y0118977D01*
X0037406Y0118910D01*
X0037436Y0118844D01*
X0037469Y0118780D01*
X0037506Y0118717D01*
X0037546Y0118657D01*
X0037590Y0118599D01*
X0037636Y0118543D01*
X0037685Y0118490D01*
X0037737Y0118439D01*
X0037791Y0118391D01*
X0037848Y0118347D01*
X0037908Y0118305D01*
X0037969Y0118266D01*
X0038032Y0118231D01*
X0038098Y0118200D01*
X0038164Y0118171D01*
X0038233Y0118147D01*
X0038302Y0118126D01*
X0038372Y0118109D01*
X0038444Y0118095D01*
X0038515Y0118086D01*
X0038588Y0118080D01*
X0038660Y0118078D01*
X0040021Y0118078D01*
X0038387Y0118078D02*
X0037298Y0115900D01*
X0035022Y0120256D02*
X0035022Y0120800D01*
X0032300Y0120800D01*
X0033661Y0115900D01*
X0037298Y0125900D02*
X0038387Y0128078D01*
X0038660Y0128078D02*
X0040021Y0128078D01*
X0038660Y0128078D02*
X0038588Y0128080D01*
X0038515Y0128086D01*
X0038444Y0128095D01*
X0038372Y0128109D01*
X0038302Y0128126D01*
X0038233Y0128147D01*
X0038164Y0128171D01*
X0038098Y0128200D01*
X0038032Y0128231D01*
X0037969Y0128266D01*
X0037908Y0128305D01*
X0037848Y0128347D01*
X0037791Y0128391D01*
X0037737Y0128439D01*
X0037685Y0128490D01*
X0037636Y0128543D01*
X0037590Y0128599D01*
X0037546Y0128657D01*
X0037506Y0128717D01*
X0037469Y0128780D01*
X0037436Y0128844D01*
X0037406Y0128910D01*
X0037380Y0128977D01*
X0037357Y0129046D01*
X0037338Y0129116D01*
X0037323Y0129187D01*
X0037311Y0129258D01*
X0037303Y0129330D01*
X0037299Y0129403D01*
X0037299Y0129475D01*
X0037303Y0129548D01*
X0037311Y0129620D01*
X0037323Y0129691D01*
X0037338Y0129762D01*
X0037357Y0129832D01*
X0037380Y0129901D01*
X0037406Y0129968D01*
X0037436Y0130034D01*
X0037469Y0130098D01*
X0037506Y0130161D01*
X0037546Y0130221D01*
X0037590Y0130279D01*
X0037636Y0130335D01*
X0037685Y0130388D01*
X0037737Y0130439D01*
X0037791Y0130487D01*
X0037848Y0130531D01*
X0037908Y0130573D01*
X0037969Y0130612D01*
X0038032Y0130647D01*
X0038098Y0130678D01*
X0038164Y0130707D01*
X0038233Y0130731D01*
X0038302Y0130752D01*
X0038372Y0130769D01*
X0038444Y0130783D01*
X0038515Y0130792D01*
X0038588Y0130798D01*
X0038660Y0130800D01*
X0040021Y0130800D01*
X0040021Y0125900D01*
X0035022Y0127261D02*
X0035020Y0127189D01*
X0035014Y0127116D01*
X0035005Y0127045D01*
X0034991Y0126973D01*
X0034974Y0126903D01*
X0034953Y0126834D01*
X0034929Y0126765D01*
X0034900Y0126699D01*
X0034869Y0126633D01*
X0034834Y0126570D01*
X0034795Y0126509D01*
X0034753Y0126449D01*
X0034709Y0126392D01*
X0034661Y0126338D01*
X0034610Y0126286D01*
X0034557Y0126237D01*
X0034501Y0126191D01*
X0034443Y0126147D01*
X0034383Y0126107D01*
X0034320Y0126070D01*
X0034256Y0126037D01*
X0034190Y0126007D01*
X0034123Y0125981D01*
X0034054Y0125958D01*
X0033984Y0125939D01*
X0033913Y0125924D01*
X0033842Y0125912D01*
X0033770Y0125904D01*
X0033697Y0125900D01*
X0033625Y0125900D01*
X0033552Y0125904D01*
X0033480Y0125912D01*
X0033409Y0125924D01*
X0033338Y0125939D01*
X0033268Y0125958D01*
X0033199Y0125981D01*
X0033132Y0126007D01*
X0033066Y0126037D01*
X0033002Y0126070D01*
X0032939Y0126107D01*
X0032879Y0126147D01*
X0032821Y0126191D01*
X0032765Y0126237D01*
X0032712Y0126286D01*
X0032661Y0126338D01*
X0032613Y0126392D01*
X0032569Y0126449D01*
X0032527Y0126509D01*
X0032488Y0126570D01*
X0032453Y0126633D01*
X0032422Y0126699D01*
X0032393Y0126765D01*
X0032369Y0126834D01*
X0032348Y0126903D01*
X0032331Y0126973D01*
X0032317Y0127045D01*
X0032308Y0127116D01*
X0032302Y0127189D01*
X0032300Y0127261D01*
X0032302Y0127333D01*
X0032308Y0127406D01*
X0032317Y0127477D01*
X0032331Y0127549D01*
X0032348Y0127619D01*
X0032369Y0127688D01*
X0032393Y0127757D01*
X0032422Y0127823D01*
X0032453Y0127889D01*
X0032488Y0127952D01*
X0032527Y0128013D01*
X0032569Y0128073D01*
X0032613Y0128130D01*
X0032661Y0128184D01*
X0032712Y0128236D01*
X0032765Y0128285D01*
X0032821Y0128331D01*
X0032879Y0128375D01*
X0032939Y0128415D01*
X0033002Y0128452D01*
X0033066Y0128485D01*
X0033132Y0128515D01*
X0033199Y0128541D01*
X0033268Y0128564D01*
X0033338Y0128583D01*
X0033409Y0128598D01*
X0033480Y0128610D01*
X0033552Y0128618D01*
X0033625Y0128622D01*
X0033697Y0128622D01*
X0033770Y0128618D01*
X0033842Y0128610D01*
X0033913Y0128598D01*
X0033984Y0128583D01*
X0034054Y0128564D01*
X0034123Y0128541D01*
X0034190Y0128515D01*
X0034256Y0128485D01*
X0034320Y0128452D01*
X0034383Y0128415D01*
X0034443Y0128375D01*
X0034501Y0128331D01*
X0034557Y0128285D01*
X0034610Y0128236D01*
X0034661Y0128184D01*
X0034709Y0128130D01*
X0034753Y0128073D01*
X0034795Y0128013D01*
X0034834Y0127952D01*
X0034869Y0127889D01*
X0034900Y0127823D01*
X0034929Y0127757D01*
X0034953Y0127688D01*
X0034974Y0127619D01*
X0034991Y0127549D01*
X0035005Y0127477D01*
X0035014Y0127406D01*
X0035020Y0127333D01*
X0035022Y0127261D01*
X0034750Y0129711D02*
X0034748Y0129646D01*
X0034742Y0129582D01*
X0034733Y0129518D01*
X0034720Y0129455D01*
X0034703Y0129393D01*
X0034682Y0129332D01*
X0034658Y0129272D01*
X0034630Y0129214D01*
X0034599Y0129157D01*
X0034564Y0129103D01*
X0034527Y0129050D01*
X0034486Y0129000D01*
X0034442Y0128952D01*
X0034396Y0128907D01*
X0034347Y0128865D01*
X0034296Y0128826D01*
X0034242Y0128790D01*
X0034187Y0128757D01*
X0034129Y0128728D01*
X0034070Y0128702D01*
X0034010Y0128679D01*
X0033948Y0128661D01*
X0033885Y0128645D01*
X0033822Y0128634D01*
X0033758Y0128626D01*
X0033693Y0128622D01*
X0033629Y0128622D01*
X0033564Y0128626D01*
X0033500Y0128634D01*
X0033437Y0128645D01*
X0033374Y0128661D01*
X0033312Y0128679D01*
X0033252Y0128702D01*
X0033193Y0128728D01*
X0033135Y0128757D01*
X0033080Y0128790D01*
X0033026Y0128826D01*
X0032975Y0128865D01*
X0032926Y0128907D01*
X0032880Y0128952D01*
X0032836Y0129000D01*
X0032795Y0129050D01*
X0032758Y0129103D01*
X0032723Y0129157D01*
X0032692Y0129214D01*
X0032664Y0129272D01*
X0032640Y0129332D01*
X0032619Y0129393D01*
X0032602Y0129455D01*
X0032589Y0129518D01*
X0032580Y0129582D01*
X0032574Y0129646D01*
X0032572Y0129711D01*
X0032574Y0129776D01*
X0032580Y0129840D01*
X0032589Y0129904D01*
X0032602Y0129967D01*
X0032619Y0130029D01*
X0032640Y0130090D01*
X0032664Y0130150D01*
X0032692Y0130208D01*
X0032723Y0130265D01*
X0032758Y0130319D01*
X0032795Y0130372D01*
X0032836Y0130422D01*
X0032880Y0130470D01*
X0032926Y0130515D01*
X0032975Y0130557D01*
X0033026Y0130596D01*
X0033080Y0130632D01*
X0033135Y0130665D01*
X0033193Y0130694D01*
X0033252Y0130720D01*
X0033312Y0130743D01*
X0033374Y0130761D01*
X0033437Y0130777D01*
X0033500Y0130788D01*
X0033564Y0130796D01*
X0033629Y0130800D01*
X0033693Y0130800D01*
X0033758Y0130796D01*
X0033822Y0130788D01*
X0033885Y0130777D01*
X0033948Y0130761D01*
X0034010Y0130743D01*
X0034070Y0130720D01*
X0034129Y0130694D01*
X0034187Y0130665D01*
X0034242Y0130632D01*
X0034296Y0130596D01*
X0034347Y0130557D01*
X0034396Y0130515D01*
X0034442Y0130470D01*
X0034486Y0130422D01*
X0034527Y0130372D01*
X0034564Y0130319D01*
X0034599Y0130265D01*
X0034630Y0130208D01*
X0034658Y0130150D01*
X0034682Y0130090D01*
X0034703Y0130029D01*
X0034720Y0129967D01*
X0034733Y0129904D01*
X0034742Y0129840D01*
X0034748Y0129776D01*
X0034750Y0129711D01*
X0035022Y0194650D02*
X0033389Y0194650D01*
X0033323Y0194652D01*
X0033258Y0194658D01*
X0033193Y0194668D01*
X0033128Y0194682D01*
X0033065Y0194699D01*
X0033003Y0194721D01*
X0032942Y0194746D01*
X0032883Y0194775D01*
X0032826Y0194807D01*
X0032770Y0194843D01*
X0032717Y0194882D01*
X0032667Y0194924D01*
X0032619Y0194969D01*
X0032574Y0195017D01*
X0032532Y0195067D01*
X0032493Y0195120D01*
X0032457Y0195176D01*
X0032425Y0195233D01*
X0032396Y0195292D01*
X0032371Y0195353D01*
X0032349Y0195415D01*
X0032332Y0195478D01*
X0032318Y0195543D01*
X0032308Y0195608D01*
X0032302Y0195673D01*
X0032300Y0195739D01*
X0032300Y0196283D01*
X0032302Y0196346D01*
X0032307Y0196409D01*
X0032317Y0196472D01*
X0032329Y0196534D01*
X0032346Y0196595D01*
X0032366Y0196655D01*
X0032389Y0196714D01*
X0032416Y0196772D01*
X0032446Y0196828D01*
X0032479Y0196881D01*
X0032515Y0196933D01*
X0032555Y0196983D01*
X0032597Y0197030D01*
X0032642Y0197075D01*
X0032689Y0197117D01*
X0032739Y0197157D01*
X0032791Y0197193D01*
X0032845Y0197226D01*
X0032900Y0197256D01*
X0032958Y0197283D01*
X0033017Y0197306D01*
X0033077Y0197326D01*
X0033138Y0197343D01*
X0033200Y0197355D01*
X0033263Y0197365D01*
X0033326Y0197370D01*
X0033389Y0197372D01*
X0035022Y0197372D01*
X0035022Y0199550D01*
X0032300Y0199550D01*
X0037340Y0194650D02*
X0040062Y0194650D01*
X0038701Y0194650D02*
X0038701Y0199550D01*
X0040062Y0198461D01*
X0043427Y0196828D02*
X0042338Y0194650D01*
X0043699Y0196828D02*
X0045061Y0196828D01*
X0043699Y0196828D02*
X0043627Y0196830D01*
X0043554Y0196836D01*
X0043483Y0196845D01*
X0043411Y0196859D01*
X0043341Y0196876D01*
X0043272Y0196897D01*
X0043203Y0196921D01*
X0043137Y0196950D01*
X0043071Y0196981D01*
X0043008Y0197016D01*
X0042947Y0197055D01*
X0042887Y0197097D01*
X0042830Y0197141D01*
X0042776Y0197189D01*
X0042724Y0197240D01*
X0042675Y0197293D01*
X0042629Y0197349D01*
X0042585Y0197407D01*
X0042545Y0197467D01*
X0042508Y0197530D01*
X0042475Y0197594D01*
X0042445Y0197660D01*
X0042419Y0197727D01*
X0042396Y0197796D01*
X0042377Y0197866D01*
X0042362Y0197937D01*
X0042350Y0198008D01*
X0042342Y0198080D01*
X0042338Y0198153D01*
X0042338Y0198225D01*
X0042342Y0198298D01*
X0042350Y0198370D01*
X0042362Y0198441D01*
X0042377Y0198512D01*
X0042396Y0198582D01*
X0042419Y0198651D01*
X0042445Y0198718D01*
X0042475Y0198784D01*
X0042508Y0198848D01*
X0042545Y0198911D01*
X0042585Y0198971D01*
X0042629Y0199029D01*
X0042675Y0199085D01*
X0042724Y0199138D01*
X0042776Y0199189D01*
X0042830Y0199237D01*
X0042887Y0199281D01*
X0042947Y0199323D01*
X0043008Y0199362D01*
X0043071Y0199397D01*
X0043137Y0199428D01*
X0043203Y0199457D01*
X0043272Y0199481D01*
X0043341Y0199502D01*
X0043411Y0199519D01*
X0043483Y0199533D01*
X0043554Y0199542D01*
X0043627Y0199548D01*
X0043699Y0199550D01*
X0045061Y0199550D01*
X0045061Y0194650D01*
X0117841Y0181550D02*
X0133200Y0181550D01*
X0132850Y0180150D02*
X0131489Y0180150D01*
X0132850Y0180150D02*
X0132850Y0175250D01*
X0132850Y0177428D02*
X0131489Y0177428D01*
X0131417Y0177430D01*
X0131344Y0177436D01*
X0131273Y0177445D01*
X0131201Y0177459D01*
X0131131Y0177476D01*
X0131062Y0177497D01*
X0130993Y0177521D01*
X0130927Y0177550D01*
X0130861Y0177581D01*
X0130798Y0177616D01*
X0130737Y0177655D01*
X0130677Y0177697D01*
X0130620Y0177741D01*
X0130566Y0177789D01*
X0130514Y0177840D01*
X0130465Y0177893D01*
X0130419Y0177949D01*
X0130375Y0178007D01*
X0130335Y0178067D01*
X0130298Y0178130D01*
X0130265Y0178194D01*
X0130235Y0178260D01*
X0130209Y0178327D01*
X0130186Y0178396D01*
X0130167Y0178466D01*
X0130152Y0178537D01*
X0130140Y0178608D01*
X0130132Y0178680D01*
X0130128Y0178753D01*
X0130128Y0178825D01*
X0130132Y0178898D01*
X0130140Y0178970D01*
X0130152Y0179041D01*
X0130167Y0179112D01*
X0130186Y0179182D01*
X0130209Y0179251D01*
X0130235Y0179318D01*
X0130265Y0179384D01*
X0130298Y0179448D01*
X0130335Y0179511D01*
X0130375Y0179571D01*
X0130419Y0179629D01*
X0130465Y0179685D01*
X0130514Y0179738D01*
X0130566Y0179789D01*
X0130620Y0179837D01*
X0130677Y0179881D01*
X0130737Y0179923D01*
X0130798Y0179962D01*
X0130861Y0179997D01*
X0130927Y0180028D01*
X0130993Y0180057D01*
X0131062Y0180081D01*
X0131131Y0180102D01*
X0131201Y0180119D01*
X0131273Y0180133D01*
X0131344Y0180142D01*
X0131417Y0180148D01*
X0131489Y0180150D01*
X0128218Y0180150D02*
X0127129Y0175250D01*
X0126041Y0178517D01*
X0124952Y0175250D01*
X0123863Y0180150D01*
X0121458Y0180150D02*
X0119825Y0177428D01*
X0118191Y0180150D01*
X0118191Y0175250D01*
X0121458Y0175250D02*
X0121458Y0180150D01*
X0125451Y0186500D02*
X0127629Y0186500D01*
X0127629Y0191400D01*
X0125451Y0191400D01*
X0125101Y0192800D02*
X0133200Y0192800D01*
X0132850Y0190039D02*
X0132850Y0187861D01*
X0132848Y0187789D01*
X0132842Y0187716D01*
X0132833Y0187645D01*
X0132819Y0187573D01*
X0132802Y0187503D01*
X0132781Y0187434D01*
X0132757Y0187365D01*
X0132728Y0187299D01*
X0132697Y0187233D01*
X0132662Y0187170D01*
X0132623Y0187109D01*
X0132581Y0187049D01*
X0132537Y0186992D01*
X0132489Y0186938D01*
X0132438Y0186886D01*
X0132385Y0186837D01*
X0132329Y0186791D01*
X0132271Y0186747D01*
X0132211Y0186707D01*
X0132148Y0186670D01*
X0132084Y0186637D01*
X0132018Y0186607D01*
X0131951Y0186581D01*
X0131882Y0186558D01*
X0131812Y0186539D01*
X0131741Y0186524D01*
X0131670Y0186512D01*
X0131598Y0186504D01*
X0131525Y0186500D01*
X0131453Y0186500D01*
X0131380Y0186504D01*
X0131308Y0186512D01*
X0131237Y0186524D01*
X0131166Y0186539D01*
X0131096Y0186558D01*
X0131027Y0186581D01*
X0130960Y0186607D01*
X0130894Y0186637D01*
X0130830Y0186670D01*
X0130767Y0186707D01*
X0130707Y0186747D01*
X0130649Y0186791D01*
X0130593Y0186837D01*
X0130540Y0186886D01*
X0130489Y0186938D01*
X0130441Y0186992D01*
X0130397Y0187049D01*
X0130355Y0187109D01*
X0130316Y0187170D01*
X0130281Y0187233D01*
X0130250Y0187299D01*
X0130221Y0187365D01*
X0130197Y0187434D01*
X0130176Y0187503D01*
X0130159Y0187573D01*
X0130145Y0187645D01*
X0130136Y0187716D01*
X0130130Y0187789D01*
X0130128Y0187861D01*
X0130128Y0190039D01*
X0130130Y0190111D01*
X0130136Y0190184D01*
X0130145Y0190255D01*
X0130159Y0190327D01*
X0130176Y0190397D01*
X0130197Y0190466D01*
X0130221Y0190535D01*
X0130250Y0190601D01*
X0130281Y0190667D01*
X0130316Y0190730D01*
X0130355Y0190791D01*
X0130397Y0190851D01*
X0130441Y0190908D01*
X0130489Y0190962D01*
X0130540Y0191014D01*
X0130593Y0191063D01*
X0130649Y0191109D01*
X0130707Y0191153D01*
X0130767Y0191193D01*
X0130830Y0191230D01*
X0130894Y0191263D01*
X0130960Y0191293D01*
X0131027Y0191319D01*
X0131096Y0191342D01*
X0131166Y0191361D01*
X0131237Y0191376D01*
X0131308Y0191388D01*
X0131380Y0191396D01*
X0131453Y0191400D01*
X0131525Y0191400D01*
X0131598Y0191396D01*
X0131670Y0191388D01*
X0131741Y0191376D01*
X0131812Y0191361D01*
X0131882Y0191342D01*
X0131951Y0191319D01*
X0132018Y0191293D01*
X0132084Y0191263D01*
X0132148Y0191230D01*
X0132211Y0191193D01*
X0132271Y0191153D01*
X0132329Y0191109D01*
X0132385Y0191063D01*
X0132438Y0191014D01*
X0132489Y0190962D01*
X0132537Y0190908D01*
X0132581Y0190851D01*
X0132623Y0190791D01*
X0132662Y0190730D01*
X0132697Y0190667D01*
X0132728Y0190601D01*
X0132757Y0190535D01*
X0132781Y0190466D01*
X0132802Y0190397D01*
X0132819Y0190327D01*
X0132833Y0190255D01*
X0132842Y0190184D01*
X0132848Y0190111D01*
X0132850Y0190039D01*
X0131217Y0196772D02*
X0131217Y0200039D01*
X0132850Y0198406D02*
X0129583Y0198406D01*
X0127202Y0199222D02*
X0127202Y0201400D01*
X0124480Y0201400D01*
X0125568Y0199222D02*
X0127202Y0199222D01*
X0125568Y0199222D02*
X0125505Y0199220D01*
X0125442Y0199215D01*
X0125379Y0199205D01*
X0125317Y0199193D01*
X0125256Y0199176D01*
X0125196Y0199156D01*
X0125137Y0199133D01*
X0125079Y0199106D01*
X0125024Y0199076D01*
X0124970Y0199043D01*
X0124918Y0199007D01*
X0124868Y0198967D01*
X0124821Y0198925D01*
X0124776Y0198880D01*
X0124734Y0198833D01*
X0124694Y0198783D01*
X0124658Y0198731D01*
X0124625Y0198678D01*
X0124595Y0198622D01*
X0124568Y0198564D01*
X0124545Y0198505D01*
X0124525Y0198445D01*
X0124508Y0198384D01*
X0124496Y0198322D01*
X0124486Y0198259D01*
X0124481Y0198196D01*
X0124479Y0198133D01*
X0124480Y0198133D02*
X0124480Y0197589D01*
X0124479Y0197589D02*
X0124481Y0197523D01*
X0124487Y0197458D01*
X0124497Y0197393D01*
X0124511Y0197328D01*
X0124528Y0197265D01*
X0124550Y0197203D01*
X0124575Y0197142D01*
X0124604Y0197083D01*
X0124636Y0197026D01*
X0124672Y0196970D01*
X0124711Y0196917D01*
X0124753Y0196867D01*
X0124798Y0196819D01*
X0124846Y0196774D01*
X0124896Y0196732D01*
X0124949Y0196693D01*
X0125005Y0196657D01*
X0125062Y0196625D01*
X0125121Y0196596D01*
X0125182Y0196571D01*
X0125244Y0196549D01*
X0125307Y0196532D01*
X0125372Y0196518D01*
X0125437Y0196508D01*
X0125502Y0196502D01*
X0125568Y0196500D01*
X0127202Y0196500D01*
X0127629Y0189222D02*
X0125996Y0189222D01*
X0125904Y0170150D02*
X0127538Y0170150D01*
X0125904Y0170150D02*
X0125839Y0170148D01*
X0125775Y0170142D01*
X0125711Y0170133D01*
X0125648Y0170120D01*
X0125586Y0170103D01*
X0125525Y0170082D01*
X0125465Y0170058D01*
X0125407Y0170030D01*
X0125350Y0169999D01*
X0125296Y0169964D01*
X0125243Y0169927D01*
X0125193Y0169886D01*
X0125145Y0169842D01*
X0125100Y0169796D01*
X0125058Y0169747D01*
X0125019Y0169696D01*
X0124983Y0169642D01*
X0124950Y0169587D01*
X0124921Y0169529D01*
X0124895Y0169470D01*
X0124872Y0169410D01*
X0124854Y0169348D01*
X0124838Y0169285D01*
X0124827Y0169222D01*
X0124819Y0169158D01*
X0124815Y0169093D01*
X0124815Y0169029D01*
X0124819Y0168964D01*
X0124827Y0168900D01*
X0124838Y0168837D01*
X0124854Y0168774D01*
X0124872Y0168712D01*
X0124895Y0168652D01*
X0124921Y0168593D01*
X0124950Y0168535D01*
X0124983Y0168480D01*
X0125019Y0168426D01*
X0125058Y0168375D01*
X0125100Y0168326D01*
X0125145Y0168280D01*
X0125193Y0168236D01*
X0125243Y0168195D01*
X0125296Y0168158D01*
X0125350Y0168123D01*
X0125407Y0168092D01*
X0125465Y0168064D01*
X0125525Y0168040D01*
X0125586Y0168019D01*
X0125648Y0168002D01*
X0125711Y0167989D01*
X0125775Y0167980D01*
X0125839Y0167974D01*
X0125904Y0167972D01*
X0126993Y0167972D01*
X0126177Y0167972D02*
X0126105Y0167970D01*
X0126032Y0167964D01*
X0125961Y0167955D01*
X0125889Y0167941D01*
X0125819Y0167924D01*
X0125750Y0167903D01*
X0125681Y0167879D01*
X0125615Y0167850D01*
X0125549Y0167819D01*
X0125486Y0167784D01*
X0125425Y0167745D01*
X0125365Y0167703D01*
X0125308Y0167659D01*
X0125254Y0167611D01*
X0125202Y0167560D01*
X0125153Y0167507D01*
X0125107Y0167451D01*
X0125063Y0167393D01*
X0125023Y0167333D01*
X0124986Y0167270D01*
X0124953Y0167206D01*
X0124923Y0167140D01*
X0124897Y0167073D01*
X0124874Y0167004D01*
X0124855Y0166934D01*
X0124840Y0166863D01*
X0124828Y0166792D01*
X0124820Y0166720D01*
X0124816Y0166647D01*
X0124816Y0166575D01*
X0124820Y0166502D01*
X0124828Y0166430D01*
X0124840Y0166359D01*
X0124855Y0166288D01*
X0124874Y0166218D01*
X0124897Y0166149D01*
X0124923Y0166082D01*
X0124953Y0166016D01*
X0124986Y0165952D01*
X0125023Y0165889D01*
X0125063Y0165829D01*
X0125107Y0165771D01*
X0125153Y0165715D01*
X0125202Y0165662D01*
X0125254Y0165611D01*
X0125308Y0165563D01*
X0125365Y0165519D01*
X0125425Y0165477D01*
X0125486Y0165438D01*
X0125549Y0165403D01*
X0125615Y0165372D01*
X0125681Y0165343D01*
X0125750Y0165319D01*
X0125819Y0165298D01*
X0125889Y0165281D01*
X0125961Y0165267D01*
X0126032Y0165258D01*
X0126105Y0165252D01*
X0126177Y0165250D01*
X0127538Y0165250D01*
X0129583Y0165250D02*
X0131217Y0170150D01*
X0132850Y0165250D01*
X0132442Y0166475D02*
X0129992Y0166475D01*
X0131217Y0161400D02*
X0129583Y0156500D01*
X0129992Y0157725D02*
X0132442Y0157725D01*
X0132850Y0156500D02*
X0131217Y0161400D01*
X0125223Y0159222D02*
X0125173Y0159272D01*
X0125126Y0159325D01*
X0125082Y0159381D01*
X0125040Y0159439D01*
X0125002Y0159499D01*
X0124967Y0159560D01*
X0124936Y0159624D01*
X0124908Y0159689D01*
X0124883Y0159756D01*
X0124863Y0159824D01*
X0124846Y0159893D01*
X0124832Y0159963D01*
X0124823Y0160033D01*
X0124817Y0160104D01*
X0124815Y0160175D01*
X0125224Y0159222D02*
X0127538Y0156500D01*
X0124816Y0156500D01*
X0127538Y0160311D02*
X0127513Y0160383D01*
X0127485Y0160453D01*
X0127453Y0160522D01*
X0127417Y0160590D01*
X0127379Y0160655D01*
X0127337Y0160719D01*
X0127292Y0160781D01*
X0127245Y0160840D01*
X0127194Y0160897D01*
X0127141Y0160952D01*
X0127085Y0161004D01*
X0127027Y0161053D01*
X0126967Y0161099D01*
X0126904Y0161142D01*
X0126840Y0161182D01*
X0126773Y0161219D01*
X0126705Y0161253D01*
X0126635Y0161284D01*
X0126564Y0161311D01*
X0126491Y0161334D01*
X0126418Y0161354D01*
X0126344Y0161371D01*
X0126269Y0161383D01*
X0126193Y0161393D01*
X0126117Y0161398D01*
X0126041Y0161400D01*
X0125972Y0161398D01*
X0125904Y0161392D01*
X0125836Y0161383D01*
X0125768Y0161369D01*
X0125702Y0161352D01*
X0125636Y0161331D01*
X0125572Y0161307D01*
X0125509Y0161279D01*
X0125448Y0161247D01*
X0125389Y0161212D01*
X0125332Y0161174D01*
X0125277Y0161133D01*
X0125225Y0161088D01*
X0125175Y0161041D01*
X0125128Y0160991D01*
X0125083Y0160939D01*
X0125042Y0160884D01*
X0125004Y0160827D01*
X0124969Y0160768D01*
X0124937Y0160707D01*
X0124909Y0160644D01*
X0124885Y0160580D01*
X0124864Y0160514D01*
X0124847Y0160448D01*
X0124833Y0160380D01*
X0124824Y0160312D01*
X0124818Y0160244D01*
X0124816Y0160175D01*
X0126177Y0150150D02*
X0126177Y0145250D01*
X0127538Y0145250D02*
X0124816Y0145250D01*
X0127538Y0149061D02*
X0126177Y0150150D01*
X0131217Y0150150D02*
X0129583Y0145250D01*
X0129992Y0146475D02*
X0132442Y0146475D01*
X0132850Y0145250D02*
X0131217Y0150150D01*
X0131217Y0141400D02*
X0129583Y0136500D01*
X0129992Y0137725D02*
X0132442Y0137725D01*
X0132850Y0136500D02*
X0131217Y0141400D01*
X0124816Y0138950D02*
X0124818Y0138828D01*
X0124823Y0138706D01*
X0124833Y0138584D01*
X0124846Y0138463D01*
X0124862Y0138342D01*
X0124882Y0138221D01*
X0124906Y0138102D01*
X0124934Y0137983D01*
X0124965Y0137865D01*
X0124999Y0137747D01*
X0125037Y0137631D01*
X0125079Y0137517D01*
X0125124Y0137403D01*
X0125173Y0137291D01*
X0125224Y0137181D01*
X0125224Y0137180D02*
X0125247Y0137122D01*
X0125272Y0137065D01*
X0125301Y0137010D01*
X0125334Y0136956D01*
X0125370Y0136905D01*
X0125408Y0136856D01*
X0125450Y0136810D01*
X0125495Y0136766D01*
X0125542Y0136725D01*
X0125592Y0136688D01*
X0125644Y0136653D01*
X0125698Y0136621D01*
X0125753Y0136593D01*
X0125811Y0136569D01*
X0125870Y0136548D01*
X0125930Y0136531D01*
X0125991Y0136517D01*
X0126052Y0136508D01*
X0126115Y0136502D01*
X0126177Y0136500D01*
X0126239Y0136502D01*
X0126302Y0136508D01*
X0126363Y0136517D01*
X0126424Y0136531D01*
X0126484Y0136548D01*
X0126543Y0136569D01*
X0126601Y0136593D01*
X0126656Y0136621D01*
X0126710Y0136653D01*
X0126762Y0136688D01*
X0126812Y0136725D01*
X0126859Y0136766D01*
X0126904Y0136810D01*
X0126946Y0136856D01*
X0126984Y0136905D01*
X0127020Y0136956D01*
X0127053Y0137010D01*
X0127082Y0137065D01*
X0127107Y0137122D01*
X0127130Y0137180D01*
X0127266Y0137589D02*
X0125088Y0140311D01*
X0125224Y0140720D02*
X0125247Y0140778D01*
X0125272Y0140835D01*
X0125301Y0140890D01*
X0125334Y0140943D01*
X0125370Y0140995D01*
X0125408Y0141044D01*
X0125450Y0141090D01*
X0125495Y0141134D01*
X0125542Y0141175D01*
X0125592Y0141212D01*
X0125644Y0141247D01*
X0125698Y0141279D01*
X0125753Y0141307D01*
X0125811Y0141331D01*
X0125870Y0141352D01*
X0125930Y0141369D01*
X0125991Y0141383D01*
X0126052Y0141392D01*
X0126115Y0141398D01*
X0126177Y0141400D01*
X0126239Y0141398D01*
X0126302Y0141392D01*
X0126363Y0141383D01*
X0126424Y0141369D01*
X0126484Y0141352D01*
X0126543Y0141331D01*
X0126601Y0141307D01*
X0126656Y0141279D01*
X0126710Y0141247D01*
X0126762Y0141212D01*
X0126812Y0141175D01*
X0126859Y0141134D01*
X0126904Y0141090D01*
X0126946Y0141044D01*
X0126984Y0140995D01*
X0127020Y0140944D01*
X0127053Y0140890D01*
X0127082Y0140835D01*
X0127107Y0140778D01*
X0127130Y0140720D01*
X0125223Y0140719D02*
X0125172Y0140609D01*
X0125123Y0140497D01*
X0125078Y0140383D01*
X0125036Y0140269D01*
X0124998Y0140153D01*
X0124964Y0140035D01*
X0124933Y0139917D01*
X0124905Y0139798D01*
X0124881Y0139679D01*
X0124861Y0139558D01*
X0124845Y0139437D01*
X0124832Y0139316D01*
X0124822Y0139194D01*
X0124817Y0139072D01*
X0124815Y0138950D01*
X0127538Y0138950D02*
X0127536Y0139072D01*
X0127531Y0139194D01*
X0127521Y0139316D01*
X0127508Y0139437D01*
X0127492Y0139558D01*
X0127472Y0139679D01*
X0127448Y0139798D01*
X0127420Y0139917D01*
X0127389Y0140035D01*
X0127355Y0140153D01*
X0127317Y0140269D01*
X0127275Y0140383D01*
X0127230Y0140497D01*
X0127182Y0140609D01*
X0127130Y0140719D01*
X0127538Y0138950D02*
X0127536Y0138828D01*
X0127531Y0138706D01*
X0127521Y0138584D01*
X0127508Y0138463D01*
X0127492Y0138342D01*
X0127472Y0138221D01*
X0127448Y0138102D01*
X0127420Y0137983D01*
X0127389Y0137865D01*
X0127355Y0137747D01*
X0127317Y0137631D01*
X0127275Y0137517D01*
X0127230Y0137403D01*
X0127182Y0137291D01*
X0127130Y0137181D01*
X0127474Y0130150D02*
X0124752Y0125250D01*
X0124752Y0130150D01*
X0122098Y0130150D02*
X0122098Y0125250D01*
X0120737Y0125250D01*
X0120666Y0125252D01*
X0120595Y0125257D01*
X0120524Y0125267D01*
X0120454Y0125280D01*
X0120385Y0125296D01*
X0120316Y0125317D01*
X0120249Y0125340D01*
X0120183Y0125368D01*
X0120119Y0125398D01*
X0120057Y0125432D01*
X0119996Y0125470D01*
X0119937Y0125510D01*
X0119880Y0125553D01*
X0119826Y0125600D01*
X0119775Y0125649D01*
X0119726Y0125700D01*
X0119679Y0125754D01*
X0119636Y0125811D01*
X0119596Y0125870D01*
X0119558Y0125931D01*
X0119524Y0125993D01*
X0119494Y0126057D01*
X0119466Y0126123D01*
X0119443Y0126190D01*
X0119422Y0126259D01*
X0119406Y0126328D01*
X0119393Y0126398D01*
X0119383Y0126469D01*
X0119378Y0126540D01*
X0119376Y0126611D01*
X0119376Y0128789D01*
X0119378Y0128860D01*
X0119383Y0128931D01*
X0119393Y0129002D01*
X0119406Y0129072D01*
X0119422Y0129141D01*
X0119443Y0129210D01*
X0119466Y0129277D01*
X0119494Y0129343D01*
X0119524Y0129407D01*
X0119558Y0129470D01*
X0119596Y0129530D01*
X0119636Y0129589D01*
X0119679Y0129646D01*
X0119726Y0129700D01*
X0119775Y0129751D01*
X0119826Y0129800D01*
X0119880Y0129847D01*
X0119937Y0129890D01*
X0119996Y0129930D01*
X0120057Y0129968D01*
X0120119Y0130002D01*
X0120183Y0130032D01*
X0120249Y0130060D01*
X0120316Y0130083D01*
X0120385Y0130104D01*
X0120454Y0130120D01*
X0120524Y0130133D01*
X0120595Y0130143D01*
X0120666Y0130148D01*
X0120737Y0130150D01*
X0122098Y0130150D01*
X0127474Y0130150D02*
X0127474Y0125250D01*
X0130128Y0125250D02*
X0130128Y0127972D01*
X0130944Y0127972D01*
X0132850Y0129061D02*
X0132848Y0129124D01*
X0132843Y0129187D01*
X0132833Y0129250D01*
X0132821Y0129312D01*
X0132804Y0129373D01*
X0132784Y0129433D01*
X0132761Y0129492D01*
X0132734Y0129550D01*
X0132704Y0129606D01*
X0132671Y0129659D01*
X0132635Y0129711D01*
X0132595Y0129761D01*
X0132553Y0129808D01*
X0132508Y0129853D01*
X0132461Y0129895D01*
X0132411Y0129935D01*
X0132359Y0129971D01*
X0132306Y0130004D01*
X0132250Y0130034D01*
X0132192Y0130061D01*
X0132133Y0130084D01*
X0132073Y0130104D01*
X0132012Y0130121D01*
X0131950Y0130133D01*
X0131887Y0130143D01*
X0131824Y0130148D01*
X0131761Y0130150D01*
X0130128Y0130150D01*
X0132850Y0126339D02*
X0132848Y0126276D01*
X0132843Y0126213D01*
X0132833Y0126150D01*
X0132821Y0126088D01*
X0132804Y0126027D01*
X0132784Y0125967D01*
X0132761Y0125908D01*
X0132734Y0125850D01*
X0132704Y0125795D01*
X0132671Y0125741D01*
X0132635Y0125689D01*
X0132595Y0125639D01*
X0132553Y0125592D01*
X0132508Y0125547D01*
X0132461Y0125505D01*
X0132411Y0125465D01*
X0132359Y0125429D01*
X0132306Y0125396D01*
X0132250Y0125366D01*
X0132192Y0125339D01*
X0132133Y0125316D01*
X0132073Y0125296D01*
X0132012Y0125279D01*
X0131950Y0125267D01*
X0131887Y0125257D01*
X0131824Y0125252D01*
X0131761Y0125250D01*
X0130128Y0125250D01*
X0132850Y0126339D02*
X0132850Y0129061D01*
M02*
